<?xml version="1.0" standalone="no"?>
<!DOCTYPE svg PUBLIC "-//W3C//DTD SVG 20010904//EN"
 "http://www.w3.org/TR/2001/REC-SVG-20010904/DTD/svg10.dtd">
<svg version="1.0" xmlns="http://www.w3.org/2000/svg"
 width="260.000000pt" height="260.000000pt" viewBox="0 0 260.000000 260.000000"
 preserveAspectRatio="xMidYMid meet">
<metadata>
Created by potrace 1.14, written by Peter Selinger 2001-2017
</metadata>
<g transform="translate(0.000000,260.000000) scale(0.100000,-0.100000)"
fill="#000000" stroke="none">
<path d="M1680 2148 c0 -7 11 -23 24 -37 14 -15 50 -66 81 -116 31 -49 66 -95
78 -102 26 -15 133 -17 142 -4 6 10 -29 54 -99 125 -21 22 -33 42 -27 44 10 3
109 -49 159 -84 21 -15 22 -15 22 3 0 57 -96 136 -203 168 -62 18 -177 20
-177 3z"/>
<path d="M390 2124 c-157 -56 -197 -133 -208 -399 l-7 -160 -59 -7 c-105 -13
-94 -27 34 -40 l25 -3 0 -480 0 -480 -67 -3 c-65 -3 -83 -12 -56 -29 20 -11
429 -12 456 0 38 18 24 27 -41 27 -36 0 -68 5 -75 12 -9 9 -12 127 -12 473 0
253 4 465 8 471 4 7 45 13 99 15 50 2 95 7 99 12 15 15 -10 22 -89 24 -45 1
-87 2 -93 3 -6 0 -40 55 -75 123 -63 121 -64 123 -64 202 1 91 15 125 69 173
110 97 275 14 258 -130 -2 -20 -9 -28 -23 -28 -10 0 -19 7 -19 15 0 25 -38 92
-55 99 -72 27 -145 -32 -145 -116 0 -47 20 -80 60 -100 72 -36 164 -8 199 61
48 93 17 207 -66 246 -38 19 -125 29 -153 19z"/>
<path d="M2354 2091 c-58 -14 -135 -64 -165 -107 -16 -24 -29 -45 -29 -48 0
-13 28 -5 62 19 66 45 73 32 28 -45 -16 -28 -30 -53 -30 -55 0 -12 58 -3 78
11 44 31 128 238 95 233 -5 -1 -22 -4 -39 -8z"/>
<path d="M2070 1822 c0 -6 4 -21 9 -34 18 -46 34 -159 24 -169 -6 -6 -45 -19
-89 -29 -103 -25 -195 -73 -244 -126 -153 -166 -187 -516 -73 -744 29 -58 147
-176 198 -200 97 -44 204 -57 302 -36 103 21 139 41 215 117 61 62 74 81 107
162 13 32 15 77 4 77 -5 0 -28 -39 -52 -86 -32 -60 -61 -100 -100 -136 -73
-67 -109 -81 -201 -82 -63 -1 -84 4 -132 27 -70 35 -131 101 -158 174 -20 55
-46 244 -36 269 4 11 33 14 121 14 416 0 595 106 571 338 -10 98 -35 135 -120
179 -83 42 -148 63 -196 63 -59 0 -64 9 -61 100 2 60 -1 80 -9 75 -7 -4 -26 7
-46 26 -19 18 -34 28 -34 21z m152 -279 c72 -34 89 -70 96 -194 7 -141 -27
-203 -138 -253 -54 -24 -78 -28 -195 -33 -119 -5 -135 -4 -141 11 -9 22 14
233 31 290 27 90 64 145 114 168 100 47 150 50 233 11z"/>
<path d="M1369 1597 c-20 -8 -52 -24 -70 -35 -19 -12 -46 -30 -61 -39 -16 -10
-28 -24 -28 -30 0 -16 5 -16 60 3 108 37 180 34 132 -6 -26 -22 -123 -60 -152
-60 -28 0 -25 -22 8 -52 84 -81 194 -57 320 69 40 39 83 72 102 78 53 16 46
31 -22 55 -80 28 -236 37 -289 17z"/>
<path d="M1080 1590 c-14 -4 -59 -9 -100 -10 -116 -3 -193 -14 -197 -27 -3 -9
17 -13 69 -15 l73 -3 5 -474 c4 -385 3 -477 -8 -488 -8 -8 -36 -13 -69 -13
-39 0 -53 -4 -50 -12 3 -10 60 -13 242 -13 182 0 239 3 243 13 3 9 -12 12 -55
12 -32 0 -68 3 -80 6 l-23 6 0 355 c0 378 0 375 51 442 24 30 24 45 2 38 -50
-14 -48 -17 -53 87 -3 55 -9 100 -15 102 -5 1 -21 -2 -35 -6z"/>
</g>
</svg>
